<svg width="32" height="32" viewBox="0 0 32 32" fill="none" xmlns="http://www.w3.org/2000/svg">
<path d="M23.9998 13.3334H22.3198C21.821 11.4014 20.7902 9.64803 19.3447 8.27257C17.8991 6.89711 16.0968 5.9547 14.1424 5.55241C12.188 5.15012 10.1599 5.30409 8.28869 5.99683C6.41744 6.68957 4.77801 7.89329 3.55669 9.47122C2.33537 11.0491 1.58114 12.938 1.3797 14.9232C1.17825 16.9083 1.53768 18.9102 2.41712 20.7013C3.29657 22.4924 4.66078 24.0009 6.35473 25.0555C8.04868 26.11 10.0045 26.6682 11.9998 26.6667H23.9998C25.7679 26.6667 27.4636 25.9643 28.7139 24.7141C29.9641 23.4638 30.6665 21.7682 30.6665 20C30.6665 18.2319 29.9641 16.5362 28.7139 15.286C27.4636 14.0358 25.7679 13.3334 23.9998 13.3334Z" stroke="#1B1818" stroke-width="2" stroke-linecap="round" stroke-linejoin="round"/>
</svg>
