<svg width="32" height="32" viewBox="0 0 32 32" fill="none" xmlns="http://www.w3.org/2000/svg">
<path d="M29.3337 16H2.66699" stroke="#1B1818" stroke-width="2" stroke-linecap="round" stroke-linejoin="round"/>
<path d="M7.26699 6.81337L2.66699 16V24C2.66699 24.7073 2.94794 25.3856 3.44804 25.8857C3.94814 26.3858 4.62641 26.6667 5.33366 26.6667H26.667C27.3742 26.6667 28.0525 26.3858 28.5526 25.8857C29.0527 25.3856 29.3337 24.7073 29.3337 24V16L24.7337 6.81337C24.5129 6.36909 24.1726 5.9952 23.7509 5.73375C23.3293 5.47229 22.8431 5.33364 22.347 5.33337H9.65366C9.15755 5.33364 8.67134 5.47229 8.24972 5.73375C7.82809 5.9952 7.48776 6.36909 7.26699 6.81337V6.81337Z" stroke="#1B1818" stroke-width="2" stroke-linecap="round" stroke-linejoin="round"/>
<path d="M8 21.3334H8.01333" stroke="#1B1818" stroke-width="2" stroke-linecap="round" stroke-linejoin="round"/>
<path d="M13.333 21.3334H13.3463" stroke="#1B1818" stroke-width="2" stroke-linecap="round" stroke-linejoin="round"/>
</svg>
